<svg width="1800" height="600" version="1.1" viewBox="0 0 476.25 158.75" xmlns="http://www.w3.org/2000/svg">
 <g transform="matrix(2.4301 0 0 2.4301 -3.9844 -767.2)" fill="#5df">
  <path d="m18.559 338c-2.1863-0.0232-4.2115 0.75841-5.6245 2.1142-1.4129 1.3558-2.2358 3.1112-2.8042 5.0083-1.1369 3.7943-1.3313 8.3936-1.6568 13.142-0.013528 0.1986 0.020162 0.3866 0.00798 0.58522l0.071906 4.8725c0.19735 3.0484 0.79448 5.9758 2.8831 8.3798 3.3204 3.8216 9.2421 5.5942 19.197 5.5336 9.8617-0.0599 15.723-1.7433 19.091-5.4727 1.7334-1.9192 2.4897-4.2107 2.8572-6.6551l-4.9953 0.60718c-0.31388 1.1044-0.77415 2.0502-1.456 2.8052-1.92 2.1259-6.2245 3.8162-15.528 3.8728-9.3552 0.057-13.628-1.6974-15.512-3.8658-1.036-1.1924-1.511-2.8532-1.7287-4.8156l-0.04993-4.7936c0.01546-0.27076-0.02593-0.44514-7e-3 -0.72502 0.32864-4.7953 0.61249-9.2358 1.464-12.078 0.42579-1.421 0.97186-2.384 1.517-2.9071 0.54511-0.52306 1.0683-0.78217 2.224-0.76996 3.3643 0.0356 5.3672 1.3498 7.4171 3.5972 0.17704 0.19409 0.3556 0.43575 0.53429 0.68909l3.1578-3.8169c-0.03695-0.0446-0.07407-0.0893-0.11385-0.13277-2.5893-2.8388-6.1769-5.1246-10.945-5.1751zm23.957 0c-4.6851 0-8.2456 2.2975-10.862 5.1371-0.42925 0.46578-0.70531 1.0048-1.1025 1.495l-3.013 4.0686c-0.82792 1.2104-1.7752 2.417-2.6155 3.5402-2.1613 2.889-4.432 5.2291-7.5069 6.4244-0.78625 0.30565-1.733 0.45079-2.7293 0.54527 0.05383 1.7343 0.26633 3.397 0.51731 4.7776 1.4198-0.12659 2.7764-0.34624 3.9667-0.80892 4.309-1.675 7.246-4.8496 9.6291-8.0352 0.62796-0.83944 1.1145-1.4685 1.6907-2.2989l3.008-4.0995c0.54805-0.72816 1.1531-1.7206 1.7137-2.3289 2.0995-2.2783 4.0895-3.5782 7.3042-3.5782 1.2247 0 1.9244 0.24565 2.4797 0.64214 0.55527 0.3965 1.0693 1.0436 1.5399 2.234 0.91256 2.3083 1.4059 6.4929 1.6268 12.266l4.8225-0.63016c-0.22167-5.6998-0.62016-10.051-1.9494-13.413-0.70342-1.7793-1.7329-3.3326-3.2237-4.3971-1.4908-1.0645-3.3417-1.5399-5.2959-1.5399zm-7.9713 12.242-3.0529 4.0246c0.18589 0.25508 0.36849 0.50345 0.57623 0.79394 2.2634 3.1652 5.0666 6.3492 9.2696 8.0742 1.9248 0.79001 4.1693 1.1352 6.6241 1.1814l4.8315-0.64514c1.67-0.27165 3.1762-0.30261 5.0732-0.90678l-1.468-4.6118c-1.3504 0.43008-2.2395 0.39785-3.3934 0.63016l-4.8575 0.751c-1.9329-0.0278-3.6017-0.31369-4.9713-0.87585-2.966-1.2173-5.1129-3.5394-7.1674-6.4124-0.46037-0.64378-0.96589-1.3181-1.464-2.0033zm-30.562 7.6917-1.5559 4.5818c1.6029 0.54442 3.0068 0.77696 4.3831 0.96772 0.13892-1.524 0.24696-3.1798 0.35453-4.8385-0.97098-0.14127-1.9517-0.29328-3.1817-0.71106z" color="#000000" stroke-linejoin="round" stroke-width="1.9325" style="-inkscape-stroke:none;paint-order:stroke fill markers"/>
  <path d="m30.4 319.05c-7.2993-6e-3 -14.228 6.509-14.434 17.546 0.69173-0.17103 1.4177-0.2636 2.1651-0.25567h1e-3c0.93616 0.01 1.8249 0.10822 2.6714 0.27762 0.14996-9.117 5.0737-12.732 9.5921-12.728 4.484 4e-3 9.325 3.5498 9.4713 12.635 0.71142-0.11692 1.4494-0.18475 2.221-0.18475 0.90404 0 1.7841 0.10686 2.6185 0.32157-0.15306-11.088-7.0276-17.604-14.307-17.61z" color="#000000" stroke-linejoin="round" stroke-width="1.9325" style="-inkscape-stroke:none;paint-order:stroke fill markers"/>
  <circle cx="30.336" cy="363.6" r="3.2798" style="paint-order:stroke fill markers"/>
 </g>
 <path transform="scale(.26458)" d="m1159.8 270.74c-17.923 0-32.12 4.5994-42.588 13.799-10.468 9.1995-16.02 22.284-16.654 39.256h39.732c0.4758-5.3928 2.1411-9.9125 4.9961-13.561 3.0136-3.648 7.5352-5.4726 13.562-5.4726 5.5513 0 9.9117 1.5875 13.084 4.7598 3.1723 3.1722 4.7598 7.6123 4.7598 13.322 0 7.1375-2.5377 12.133-7.6133 14.988-4.9169 2.6964-11.421 4.0449-19.51 4.0449h-7.6133v33.07h7.6133c10.627 0 18.32 1.7449 23.078 5.2344 4.9169 3.3308 7.375 8.8026 7.375 16.416 0 5.8686-1.745 10.627-5.2344 14.275-3.3308 3.4894-8.0895 5.2344-14.275 5.2344-7.2961 0-12.848-1.982-16.654-5.9473-3.8066-4.1238-5.7885-9.6754-5.9472-16.654h-39.494c0.6344 18.875 6.5823 32.99 17.844 42.348 11.42 9.3581 26.646 14.037 45.68 14.037 11.896 0 22.126-2.1413 30.691-6.4238 8.7235-4.2824 15.307-10.151 19.748-17.605 4.5997-7.6134 6.8984-16.336 6.8984-26.17 0-10.944-2.6174-19.906-7.8515-26.885-5.2342-6.9789-12.371-11.975-21.412-14.988v-0.95313c6.9789-2.3792 13.086-6.8192 18.32-13.322 5.2341-6.6617 7.8516-15.227 7.8516-25.695 0-8.8823-2.2211-16.892-6.6622-24.029-4.2825-7.1374-10.706-12.769-19.271-16.893-8.4064-4.1239-18.557-6.1856-30.453-6.1856zm-210.17 1.666v176.06h40.684v-18.557c3.9653 6.1858 9.4371 11.182 16.416 14.988 6.9789 3.648 15.148 5.4726 24.506 5.4726 10.944 0 20.858-2.7767 29.74-8.3281 8.8822-5.7099 15.86-13.72 20.936-24.029 5.2342-10.468 7.8516-22.522 7.8516-36.162 0-13.641-2.6174-25.616-7.8516-35.926-5.0755-10.31-12.053-18.24-20.936-23.791-8.8823-5.5514-18.796-8.3281-29.74-8.3281-9.1994 0-17.368 1.9043-24.506 5.7109-7.1375 3.8067-12.609 8.8025-16.416 14.988v-62.096h-40.684zm737.74 0v176.06h16.654v-176.06h-16.654zm-1127.4 9.0391 42.35 167.02h49.248l27.598-109.92 26.646 109.92h49.25l43.539-167.02h-43.777l-24.268 121.58-28.551-121.58h-44.727l-29.74 121.58-24.029-121.58h-43.539zm670.08 0.71484 63.049 166.3h19.033l63.049-166.3h-17.607l-54.959 148.22-54.482-148.22h-18.082zm508.54 3.8066v32.594h-18.082v14.037h18.082v80.654c0 12.53 2.8545 21.572 8.5644 27.123 5.7101 5.3928 14.433 8.0879 26.17 8.0879h17.844v-14.273h-15.227c-7.6133 0-12.926-1.5079-15.939-4.5215-3.0136-3.0136-4.5215-8.4855-4.5215-16.416v-80.654h35.688v-14.037h-35.688v-32.594h-16.891zm-868.53 27.836c-13.165 0-24.824 2.7767-34.975 8.3281-10.151 5.5513-18.081 13.481-23.791 23.791-5.5514 10.31-8.3262 22.363-8.3262 36.162 0 13.799 2.8544 25.854 8.5644 36.164 5.71 10.31 13.64 18.24 23.791 23.791 10.151 5.5514 21.73 8.3281 34.736 8.3281 10.785 0 20.54-1.982 29.264-5.9473 8.7236-3.9653 15.94-9.4392 21.65-16.418 5.8686-6.9789 9.9123-14.829 12.133-23.553h-43.301c-3.9653 8.565-11.023 12.848-21.174 12.848-6.8203 0-12.609-2.1413-17.367-6.4238-4.5995-4.4411-7.2169-10.785-7.8516-19.033h92.074c0.47602-4.1239 0.71289-8.0898 0.71289-11.896 0-13.323-2.8544-24.98-8.5644-34.973-5.5514-9.9925-13.324-17.685-23.316-23.078-9.9925-5.3928-21.412-8.0898-34.26-8.0898zm576.58 2.8555c-11.896 0-22.602 2.7748-32.119 8.3262-9.3581 5.3928-16.732 13.165-22.125 23.316-5.2342 9.9925-7.8516 21.649-7.8516 34.973 0 13.323 2.6174 25.062 7.8516 35.213 5.3927 10.151 12.767 18.001 22.125 23.553 9.5166 5.5514 20.144 8.3281 31.881 8.3281 12.372 0 22.999-2.8544 31.881-8.5644 9.0408-5.8686 15.624-13.245 19.748-22.127v28.787h16.654v-129.9h-16.654v28.551c-3.9652-8.8823-10.469-16.179-19.51-21.889-8.8823-5.71-19.509-8.5644-31.881-8.5644zm96.92 1.9023v75.896c0 18.24 4.9162 32.198 14.75 41.873 9.8339 9.5167 22.523 14.275 38.066 14.275 9.834 0 18.716-2.1414 26.646-6.4238 7.9306-4.2825 13.799-10.469 17.606-18.559v22.84h16.654v-129.9h-16.654v70.662c0 15.385-3.727 27.042-11.182 34.973-7.4548 7.9305-17.446 11.896-29.977 11.896-12.213 0-21.89-3.7269-29.027-11.182-6.9789-7.4547-10.467-18.241-10.467-32.357v-73.992h-16.416zm-93.826 12.611c8.8822 0 16.97 2.1394 24.266 6.4219 7.4547 4.2825 13.325 10.39 17.607 18.32 4.2825 7.9306 6.4238 17.129 6.4238 27.598 0 10.468-2.1413 19.669-6.4238 27.6-4.2825 7.9305-10.153 14.036-17.607 18.318-7.2961 4.2825-15.383 6.4238-24.266 6.4238-9.1995 0-17.448-2.0617-24.744-6.1855-7.2961-4.2825-13.085-10.388-17.367-18.318-4.1238-8.0892-6.1875-17.447-6.1875-28.074 0-10.786 2.0637-20.066 6.1875-27.838 4.2825-7.9305 10.071-13.956 17.367-18.08 7.2962-4.1239 15.545-6.1856 24.744-6.1856zm-580.15 15.225c7.1375 0 13.085 2.0636 17.844 6.1875 4.7583 4.1239 7.1387 9.6754 7.1387 16.654h-50.914c1.1103-7.2961 3.9647-12.927 8.5644-16.893 4.7584-3.9653 10.547-5.9492 17.367-5.9492zm149.5 2.8555c8.2478 0 15.146 2.9341 20.697 8.8027 5.71 5.71 8.5664 13.642 8.5664 23.793 0 10.151-2.8564 18.24-8.5664 24.268-5.71 5.8686-12.608 8.8027-20.697 8.8027-8.0892 0-14.989-2.9341-20.699-8.8027-5.5514-5.8686-8.3262-13.88-8.3262-24.031 0-10.151 2.7748-18.161 8.3262-24.029 5.7099-5.8686 12.61-8.8027 20.699-8.8027z" fill="#fff" stroke-width="164.1" style="paint-order:stroke markers fill;white-space:pre"/>
</svg>
