<svg width="512" height="512" version="1.1" viewBox="0 0 135.47 135.47" xmlns="http://www.w3.org/2000/svg">
 <g transform="matrix(1.7733 0 0 1.7733 14.167 -565.28)" fill="#5df">
  <path d="m18.559 338c-2.1863-0.0232-4.2115 0.75841-5.6245 2.1142-1.4129 1.3558-2.2358 3.1112-2.8042 5.0083-1.1369 3.7943-1.3313 8.3936-1.6568 13.142-0.013528 0.1986 0.020162 0.3866 0.00798 0.58522l0.071906 4.8725c0.19735 3.0484 0.79448 5.9758 2.8831 8.3798 3.3204 3.8216 9.2421 5.5942 19.197 5.5336 9.8617-0.0599 15.723-1.7433 19.091-5.4727 1.7334-1.9192 2.4897-4.2107 2.8572-6.6551l-4.9953 0.60718c-0.31388 1.1044-0.77415 2.0502-1.456 2.8052-1.92 2.1259-6.2245 3.8162-15.528 3.8728-9.3552 0.057-13.628-1.6974-15.512-3.8658-1.036-1.1924-1.511-2.8532-1.7287-4.8156l-0.04993-4.7936c0.01546-0.27076-0.02593-0.44514-7e-3 -0.72502 0.32864-4.7953 0.61249-9.2358 1.464-12.078 0.42579-1.421 0.97186-2.384 1.517-2.9071 0.54511-0.52306 1.0683-0.78217 2.224-0.76996 3.3643 0.0356 5.3672 1.3498 7.4171 3.5972 0.17704 0.19409 0.3556 0.43575 0.53429 0.68909l3.1578-3.8169c-0.03695-0.0446-0.07407-0.0893-0.11385-0.13277-2.5893-2.8388-6.1769-5.1246-10.945-5.1751zm23.957 0c-4.6851 0-8.2456 2.2975-10.862 5.1371-0.42925 0.46578-0.70531 1.0048-1.1025 1.495l-3.013 4.0686c-0.82792 1.2104-1.7752 2.417-2.6155 3.5402-2.1613 2.889-4.432 5.2291-7.5069 6.4244-0.78625 0.30565-1.733 0.45079-2.7293 0.54527 0.05383 1.7343 0.26633 3.397 0.51731 4.7776 1.4198-0.12659 2.7764-0.34624 3.9667-0.80892 4.309-1.675 7.246-4.8496 9.6291-8.0352 0.62796-0.83944 1.1145-1.4685 1.6907-2.2989l3.008-4.0995c0.54805-0.72816 1.1531-1.7206 1.7137-2.3289 2.0995-2.2783 4.0895-3.5782 7.3042-3.5782 1.2247 0 1.9244 0.24565 2.4797 0.64214 0.55527 0.3965 1.0693 1.0436 1.5399 2.234 0.91256 2.3083 1.4059 6.4929 1.6268 12.266l4.8225-0.63016c-0.22167-5.6998-0.62016-10.051-1.9494-13.413-0.70342-1.7793-1.7329-3.3326-3.2237-4.3971-1.4908-1.0645-3.3417-1.5399-5.2959-1.5399zm-7.9713 12.242-3.0529 4.0246c0.18589 0.25508 0.36849 0.50345 0.57623 0.79394 2.2634 3.1652 5.0666 6.3492 9.2696 8.0742 1.9248 0.79001 4.1693 1.1352 6.6241 1.1814l4.8315-0.64514c1.67-0.27165 3.1762-0.30261 5.0732-0.90678l-1.468-4.6118c-1.3504 0.43008-2.2395 0.39785-3.3934 0.63016l-4.8575 0.751c-1.9329-0.0278-3.6017-0.31369-4.9713-0.87585-2.966-1.2173-5.1129-3.5394-7.1674-6.4124-0.46037-0.64378-0.96589-1.3181-1.464-2.0033zm-30.562 7.6917-1.5559 4.5818c1.6029 0.54442 3.0068 0.77696 4.3831 0.96772 0.13892-1.524 0.24696-3.1798 0.35453-4.8385-0.97098-0.14127-1.9517-0.29328-3.1817-0.71106z" color="#000000" stroke-linejoin="round" stroke-width="1.9325" style="-inkscape-stroke:none;paint-order:stroke fill markers"/>
  <path d="m30.4 319.05c-7.2993-6e-3 -14.228 6.509-14.434 17.546 0.69173-0.17103 1.4177-0.2636 2.1651-0.25567h1e-3c0.93616 0.01 1.8249 0.10822 2.6714 0.27762 0.14996-9.117 5.0737-12.732 9.5921-12.728 4.484 4e-3 9.325 3.5498 9.4713 12.635 0.71142-0.11692 1.4494-0.18475 2.221-0.18475 0.90404 0 1.7841 0.10686 2.6185 0.32157-0.15306-11.088-7.0276-17.604-14.307-17.61z" color="#000000" stroke-linejoin="round" stroke-width="1.9325" style="-inkscape-stroke:none;paint-order:stroke fill markers"/>
  <circle cx="30.336" cy="363.6" r="3.2798" style="paint-order:stroke fill markers"/>
 </g>
 <path d="m66.331 119.57c-1.4702 0-2.6348 0.37718-3.4935 1.1318-0.85868 0.75462-1.3136 1.8281-1.3657 3.2202h3.259c0.03903-0.44236 0.17539-0.81314 0.40958-1.1124 0.2472-0.29925 0.61799-0.44896 1.1124-0.44896 0.45537 0 0.81339 0.12999 1.0736 0.39019 0.26022 0.26021 0.39019 0.62463 0.39019 1.093 0 0.58548-0.20831 0.99514-0.62466 1.2293-0.40333 0.22119-0.93659 0.33202-1.6001 0.33202h-0.62465v2.7125h0.62465c0.87171 0 1.503 0.14332 1.8934 0.42957 0.40333 0.27321 0.60468 0.72233 0.60468 1.3468 0 0.48138-0.14333 0.87132-0.42956 1.1706-0.27322 0.28623-0.66315 0.42956-1.1706 0.42956-0.59849 0-1.054-0.16247-1.3662-0.48774-0.31225-0.33827-0.47472-0.79378-0.48773-1.3662h-3.2396c0.05204 1.5483 0.54004 2.7059 1.4638 3.4735 0.93676 0.76763 2.1855 1.1518 3.7468 1.1518 0.97579 0 1.8148-0.17582 2.5174-0.5271 0.71558-0.35128 1.2558-0.83232 1.6201-1.4438 0.37731-0.62451 0.56589-1.3406 0.56589-2.1472 0-0.89774-0.2147-1.6329-0.64404-2.2054-0.42935-0.57247-1.0148-0.98212-1.7564-1.2293v-0.0781c0.57247-0.19517 1.0732-0.55956 1.5026-1.093 0.42935-0.54644 0.64404-1.2486 0.64404-2.1072 0-0.72859-0.18221-1.386-0.5465-1.9715-0.35129-0.58547-0.87816-1.0474-1.5807-1.3856-0.68956-0.33828-1.5222-0.50713-2.498-0.50713zm-17.239 0.13634v14.442h3.3372v-1.522c0.32526 0.50741 0.7738 0.91708 1.3463 1.2293 0.57246 0.29924 1.2427 0.44896 2.0103 0.44896 0.89773 0 1.7107-0.22747 2.4393-0.68284 0.72859-0.46839 1.3013-1.1258 1.7177-1.9715 0.42935-0.85869 0.64405-1.8475 0.64405-2.9664s-0.2147-2.1013-0.64405-2.947c-0.41634-0.84568-0.98906-1.4962-1.7177-1.9515-0.7286-0.45536-1.5415-0.68283-2.4393-0.68283-0.75461 0-1.4248 0.15609-2.0103 0.46834-0.58548 0.31226-1.034 0.72192-1.3463 1.2293v-5.0936zm60.515 0v14.442h1.3662v-14.442zm-92.477 0.74159 3.4741 13.7h4.0394l2.2642-9.0161 2.1854 9.0161h4.04l3.5716-13.7h-3.591l-1.9909 9.9727-2.3417-9.9727h-3.6692l-2.4393 9.9727-1.9709-9.9727zm54.966 0.0587 5.1712 13.641h1.5613l5.1718-13.641h-1.4438l-4.5083 12.158-4.469-12.158zm41.714 0.31204v2.6737h-1.4832v1.1518h1.4832v6.6156c0 1.0278 0.23384 1.7694 0.70221 2.2248 0.46839 0.44237 1.1844 0.66344 2.1472 0.66344h1.4632v-1.1706h-1.2487c-0.6245 0-1.0603-0.1236-1.3075-0.37079-0.2472-0.24722-0.37079-0.69633-0.37079-1.3469v-6.6156h2.927v-1.1518h-2.927v-2.6737zm-71.244 2.2835c-1.0799 0-2.0362 0.22746-2.8688 0.68282-0.83268 0.45537-1.4832 1.1059-1.9515 1.9515-0.45537 0.84569-0.68283 1.835-0.68283 2.967s0.23384 2.1207 0.70222 2.9664c0.46838 0.84568 1.1188 1.4962 1.9515 1.9515 0.83268 0.45537 1.7826 0.68283 2.8494 0.68283 0.88472 0 1.6849-0.16248 2.4005-0.48774 0.71558-0.32527 1.3074-0.77439 1.7758-1.3468 0.48139-0.57248 0.8133-1.2166 0.99545-1.9321h-3.5517c-0.32526 0.70256-0.90437 1.0542-1.737 1.0542-0.55946 0-1.0347-0.17582-1.425-0.5271-0.37729-0.3643-0.59199-0.88479-0.64405-1.5614h7.5529c0.03905-0.33828 0.05877-0.66321 0.05877-0.97547 0-1.0929-0.23443-2.0492-0.70281-2.8688-0.45537-0.81968-1.0931-1.451-1.9127-1.8934-0.81967-0.44236-1.7562-0.66344-2.8101-0.66344zm47.296 0.23446c-0.97579 0-1.8543 0.22747-2.6349 0.68283-0.76763 0.44237-1.3723 1.0801-1.8146 1.9128-0.42935 0.81967-0.64404 1.7759-0.64404 2.8688s0.21469 2.0555 0.64404 2.8882c0.44236 0.83268 1.047 1.4768 1.8146 1.9321 0.78064 0.45537 1.6522 0.68283 2.615 0.68283 1.0148 0 1.887-0.23385 2.6156-0.70222 0.7416-0.4814 1.2812-1.0866 1.6195-1.8152v2.3611h1.3662v-10.656h-1.3662v2.3423c-0.32526-0.7286-0.85852-1.3274-1.6001-1.7958-0.7286-0.46838-1.6001-0.70223-2.615-0.70223zm7.9501 0.15572v6.226c0 1.4962 0.40328 2.6411 1.2099 3.4347 0.80666 0.78064 1.8477 1.1706 3.1227 1.1706 0.80667 0 1.5349-0.17524 2.1854-0.52652 0.65053-0.35129 1.1321-0.85902 1.4444-1.5226v1.8734h1.3662v-10.656h-1.3662v5.7964c0 1.262-0.3058 2.2183-0.91729 2.8688-0.6115 0.65052-1.4314 0.97546-2.4592 0.97546-1.0018 0-1.795-0.3052-2.3805-0.91671-0.57247-0.61148-0.85912-1.4964-0.85912-2.6543v-6.0697zm-7.6968 1.0342c0.72859 0 1.3924 0.17582 1.9909 0.52711 0.6115 0.35127 1.0931 0.85205 1.4444 1.5026 0.35128 0.65053 0.52652 1.4055 0.52652 2.2642 0 0.85871-0.17524 1.613-0.52652 2.2636-0.35129 0.65054-0.83291 1.1519-1.4444 1.5032-0.59849 0.35128-1.2623 0.52653-1.9909 0.52653-0.75462 0-1.4312-0.16887-2.0297-0.50713-0.59849-0.3513-1.0731-0.85206-1.4244-1.5026-0.33827-0.66354-0.50712-1.4312-0.50712-2.3029 0-0.88471 0.16885-1.646 0.50712-2.2835 0.35128-0.65053 0.82594-1.1449 1.4244-1.4832 0.59849-0.33828 1.2751-0.50771 2.0297-0.50771zm-47.588 1.2493c0.58548 0 1.0729 0.16885 1.4632 0.50713 0.39032 0.33827 0.58587 0.79377 0.58587 1.3662h-4.1763c0.09107-0.5985 0.32491-1.0604 0.70222-1.3856 0.39032-0.32526 0.86556-0.48774 1.425-0.48774zm12.263 0.23389c0.67655 0 1.2429 0.24081 1.6983 0.72219 0.46838 0.46839 0.70222 1.1189 0.70222 1.9515s-0.23384 1.4965-0.70222 1.9909c-0.46838 0.48139-1.0347 0.72219-1.6983 0.72219-0.66354 0-1.2293-0.2408-1.6977-0.72219-0.45537-0.4814-0.68283-1.1382-0.68283-1.9709s0.22746-1.4901 0.68283-1.9715c0.46838-0.48138 1.0341-0.72219 1.6977-0.72219z" fill="#fff" stroke-width="13.46" style="paint-order:stroke markers fill;white-space:pre"/>
</svg>
