<svg width="512" height="512" version="1.1" viewBox="0 0 135.47 135.47" xmlns="http://www.w3.org/2000/svg">
 <g transform="matrix(2.1838 0 0 2.1838 1.9872 -693.96)" fill="#5df">
  <path d="m18.559 338c-2.1863-0.0232-4.2115 0.75841-5.6245 2.1142-1.4129 1.3558-2.2358 3.1112-2.8042 5.0083-1.1369 3.7943-1.3313 8.3936-1.6568 13.142-0.013528 0.1986 0.020162 0.3866 0.00798 0.58522l0.071906 4.8725c0.19735 3.0484 0.79448 5.9758 2.8831 8.3798 3.3204 3.8216 9.2421 5.5942 19.197 5.5336 9.8617-0.0599 15.723-1.7433 19.091-5.4727 1.7334-1.9192 2.4897-4.2107 2.8572-6.6551l-4.9953 0.60718c-0.31388 1.1044-0.77415 2.0502-1.456 2.8052-1.92 2.1259-6.2245 3.8162-15.528 3.8728-9.3552 0.057-13.628-1.6974-15.512-3.8658-1.036-1.1924-1.511-2.8532-1.7287-4.8156l-0.04993-4.7936c0.01546-0.27076-0.02593-0.44514-7e-3 -0.72502 0.32864-4.7953 0.61249-9.2358 1.464-12.078 0.42579-1.421 0.97186-2.384 1.517-2.9071 0.54511-0.52306 1.0683-0.78217 2.224-0.76996 3.3643 0.0356 5.3672 1.3498 7.4171 3.5972 0.17704 0.19409 0.3556 0.43575 0.53429 0.68909l3.1578-3.8169c-0.03695-0.0446-0.07407-0.0893-0.11385-0.13277-2.5893-2.8388-6.1769-5.1246-10.945-5.1751zm23.957 0c-4.6851 0-8.2456 2.2975-10.862 5.1371-0.42925 0.46578-0.70531 1.0048-1.1025 1.495l-3.013 4.0686c-0.82792 1.2104-1.7752 2.417-2.6155 3.5402-2.1613 2.889-4.432 5.2291-7.5069 6.4244-0.78625 0.30565-1.733 0.45079-2.7293 0.54527 0.05383 1.7343 0.26633 3.397 0.51731 4.7776 1.4198-0.12659 2.7764-0.34624 3.9667-0.80892 4.309-1.675 7.246-4.8496 9.6291-8.0352 0.62796-0.83944 1.1145-1.4685 1.6907-2.2989l3.008-4.0995c0.54805-0.72816 1.1531-1.7206 1.7137-2.3289 2.0995-2.2783 4.0895-3.5782 7.3042-3.5782 1.2247 0 1.9244 0.24565 2.4797 0.64214 0.55527 0.3965 1.0693 1.0436 1.5399 2.234 0.91256 2.3083 1.4059 6.4929 1.6268 12.266l4.8225-0.63016c-0.22167-5.6998-0.62016-10.051-1.9494-13.413-0.70342-1.7793-1.7329-3.3326-3.2237-4.3971s-3.3417-1.5399-5.2959-1.5399zm-7.9713 12.242-3.0529 4.0246c0.18589 0.25508 0.36849 0.50345 0.57623 0.79394 2.2634 3.1652 5.0666 6.3492 9.2696 8.0742 1.9248 0.79001 4.1693 1.1352 6.6241 1.1814l4.8315-0.64514c1.67-0.27165 3.1762-0.30261 5.0732-0.90678l-1.468-4.6118c-1.3504 0.43008-2.2395 0.39785-3.3934 0.63016l-4.8575 0.751c-1.9329-0.0278-3.6017-0.31369-4.9713-0.87585-2.966-1.2173-5.1129-3.5394-7.1674-6.4124-0.46037-0.64378-0.96589-1.3181-1.464-2.0033zm-30.562 7.6917-1.5559 4.5818c1.6029 0.54442 3.0068 0.77696 4.3831 0.96772 0.13892-1.524 0.24696-3.1798 0.35453-4.8385-0.97098-0.14127-1.9517-0.29328-3.1817-0.71106z" color="#000000" stroke-linejoin="round" stroke-width="1.9325" style="-inkscape-stroke:none;paint-order:stroke fill markers"/>
  <path d="m30.4 319.05c-7.2993-6e-3 -14.228 6.509-14.434 17.546 0.69173-0.17103 1.4177-0.2636 2.1651-0.25567h1e-3c0.93616 0.01 1.8249 0.10822 2.6714 0.27762 0.14996-9.117 5.0737-12.732 9.5921-12.728 4.484 4e-3 9.325 3.5498 9.4713 12.635 0.71142-0.11692 1.4494-0.18475 2.221-0.18475 0.90404 0 1.7841 0.10686 2.6185 0.32157-0.15306-11.088-7.0276-17.604-14.307-17.61z" color="#000000" stroke-linejoin="round" stroke-width="1.9325" style="-inkscape-stroke:none;paint-order:stroke fill markers"/>
  <circle cx="30.336" cy="363.6" r="3.2798" style="paint-order:stroke fill markers"/>
 </g>
</svg>
