<?xml version="1.0" encoding="UTF-8" standalone="no"?>
<svg
   width="170"
   height="50"
   version="1.1"
   viewBox="0 0 44.979 13.229"
   id="svg12"
   sodipodi:docname="web3vault_baseline.svg"
   inkscape:version="1.1.2 (0a00cf5339, 2022-02-04)"
   xmlns:inkscape="http://www.inkscape.org/namespaces/inkscape"
   xmlns:sodipodi="http://sodipodi.sourceforge.net/DTD/sodipodi-0.dtd"
   xmlns="http://www.w3.org/2000/svg"
   xmlns:svg="http://www.w3.org/2000/svg">
  <defs
     id="defs16" />
  <sodipodi:namedview
     id="namedview14"
     pagecolor="#505050"
     bordercolor="#eeeeee"
     borderopacity="1"
     inkscape:pageshadow="0"
     inkscape:pageopacity="0"
     inkscape:pagecheckerboard="0"
     showgrid="false"
     inkscape:zoom="5.6318975"
     inkscape:cx="76.617161"
     inkscape:cy="23.704266"
     inkscape:window-width="1916"
     inkscape:window-height="1038"
     inkscape:window-x="0"
     inkscape:window-y="18"
     inkscape:window-maximized="1"
     inkscape:current-layer="svg12" />
  <g
     transform="matrix(.21267 0 0 .21267 -.14601 -67.565)"
     fill="#5df"
     id="g8">
    <path
       d="m18.559 338c-2.1863-0.0232-4.2115 0.75841-5.6245 2.1142-1.4129 1.3558-2.2358 3.1112-2.8042 5.0083-1.1369 3.7943-1.3313 8.3936-1.6568 13.142-0.013528 0.1986 0.020162 0.3866 0.00798 0.58522l0.071906 4.8725c0.19735 3.0484 0.79448 5.9758 2.8831 8.3798 3.3204 3.8216 9.2421 5.5942 19.197 5.5336 9.8617-0.0599 15.723-1.7433 19.091-5.4727 1.7334-1.9192 2.4897-4.2107 2.8572-6.6551l-4.9953 0.60718c-0.31388 1.1044-0.77415 2.0502-1.456 2.8052-1.92 2.1259-6.2245 3.8162-15.528 3.8728-9.3552 0.057-13.628-1.6974-15.512-3.8658-1.036-1.1924-1.511-2.8532-1.7287-4.8156l-0.04993-4.7936c0.01546-0.27076-0.02593-0.44514-7e-3 -0.72502 0.32864-4.7953 0.61249-9.2358 1.464-12.078 0.42579-1.421 0.97186-2.384 1.517-2.9071 0.54511-0.52306 1.0683-0.78217 2.224-0.76996 3.3643 0.0356 5.3672 1.3498 7.4171 3.5972 0.17704 0.19409 0.3556 0.43575 0.53429 0.68909l3.1578-3.8169c-0.03695-0.0446-0.07407-0.0893-0.11385-0.13277-2.5893-2.8388-6.1769-5.1246-10.945-5.1751zm23.957 0c-4.6851 0-8.2456 2.2975-10.862 5.1371-0.42925 0.46578-0.70531 1.0048-1.1025 1.495l-3.013 4.0686c-0.82792 1.2104-1.7752 2.417-2.6155 3.5402-2.1613 2.889-4.432 5.2291-7.5069 6.4244-0.78625 0.30565-1.733 0.45079-2.7293 0.54527 0.05383 1.7343 0.26633 3.397 0.51731 4.7776 1.4198-0.12659 2.7764-0.34624 3.9667-0.80892 4.309-1.675 7.246-4.8496 9.6291-8.0352 0.62796-0.83944 1.1145-1.4685 1.6907-2.2989l3.008-4.0995c0.54805-0.72816 1.1531-1.7206 1.7137-2.3289 2.0995-2.2783 4.0895-3.5782 7.3042-3.5782 1.2247 0 1.9244 0.24565 2.4797 0.64214 0.55527 0.3965 1.0693 1.0436 1.5399 2.234 0.91256 2.3083 1.4059 6.4929 1.6268 12.266l4.8225-0.63016c-0.22167-5.6998-0.62016-10.051-1.9494-13.413-0.70342-1.7793-1.7329-3.3326-3.2237-4.3971s-3.3417-1.5399-5.2959-1.5399zm-7.9713 12.242-3.0529 4.0246c0.18589 0.25508 0.36849 0.50345 0.57623 0.79394 2.2634 3.1652 5.0666 6.3492 9.2696 8.0742 1.9248 0.79001 4.1693 1.1352 6.6241 1.1814l4.8315-0.64514c1.67-0.27165 3.1762-0.30261 5.0732-0.90678l-1.468-4.6118c-1.3504 0.43008-2.2395 0.39785-3.3934 0.63016l-4.8575 0.751c-1.9329-0.0278-3.6017-0.31369-4.9713-0.87585-2.966-1.2173-5.1129-3.5394-7.1674-6.4124-0.46037-0.64378-0.96589-1.3181-1.464-2.0033zm-30.562 7.6917-1.5559 4.5818c1.6029 0.54442 3.0068 0.77696 4.3831 0.96772 0.13892-1.524 0.24696-3.1798 0.35453-4.8385-0.97098-0.14127-1.9517-0.29328-3.1817-0.71106z"
       color="#000000"
       stroke-linejoin="round"
       stroke-width="1.9325"
       style="-inkscape-stroke:none;paint-order:stroke fill markers"
       id="path2" />
    <path
       d="m30.4 319.05c-7.2993-6e-3 -14.228 6.509-14.434 17.546 0.69173-0.17103 1.4177-0.2636 2.1651-0.25567h1e-3c0.93616 0.01 1.8249 0.10822 2.6714 0.27762 0.14996-9.117 5.0737-12.732 9.5921-12.728 4.484 4e-3 9.325 3.5498 9.4713 12.635 0.71142-0.11692 1.4494-0.18475 2.221-0.18475 0.90404 0 1.7841 0.10686 2.6185 0.32157-0.15306-11.088-7.0276-17.604-14.307-17.61z"
       color="#000000"
       stroke-linejoin="round"
       stroke-width="1.9325"
       style="-inkscape-stroke:none;paint-order:stroke fill markers"
       id="path4" />
    <circle
       cx="30.336"
       cy="363.6"
       r="3.2798"
       style="paint-order:stroke fill markers"
       id="circle6" />
  </g>
  <path
     d="m 28.553355,4.4832131 c -0.45968,0 -0.823801,0.1179658 -1.092287,0.3539087 -0.268475,0.2359428 -0.410876,0.5715308 -0.427136,1.0068304 h 1.019037 c 0.01221,-0.1383136 0.05492,-0.2542303 0.128134,-0.3478055 0.07729,-0.093564 0.193265,-0.1403628 0.347839,-0.1403628 0.142378,0 0.254208,0.040718 0.335577,0.1220753 0.08136,0.081358 0.122075,0.1952363 0.122075,0.3416802 0,0.183063 -0.06509,0.3111862 -0.195259,0.3844136 -0.126107,0.069162 -0.29292,0.1037435 -0.500385,0.1037435 h -0.195259 v 0.8481691 h 0.195259 c 0.272562,0 0.469869,0.044761 0.5919,0.1342485 0.126108,0.085423 0.189156,0.2257634 0.189156,0.421033 0,0.15052 -0.04475,0.2725621 -0.134249,0.3661262 -0.08543,0.089499 -0.207476,0.1342485 -0.366126,0.1342485 -0.187128,0 -0.329518,-0.050831 -0.427136,-0.152536 -0.09763,-0.1057705 -0.14846,-0.2481493 -0.152536,-0.4271362 h -1.012934 c 0.01627,0.4841032 0.168819,0.84612 0.457663,1.0861279 0.292899,0.2400079 0.683405,0.3600119 1.171573,0.3600119 0.305105,0 0.567477,-0.054918 0.787148,-0.1647535 0.223737,-0.1098356 0.392589,-0.2603446 0.506489,-0.4515268 0.117977,-0.1952695 0.176927,-0.4189838 0.176927,-0.6711981 0,-0.2806924 -0.06712,-0.510543 -0.201373,-0.689541 C 29.743204,6.921972 29.560163,6.7938378 29.328285,6.7165674 v -0.024446 c 0.178998,-0.061021 0.335621,-0.1748996 0.46987,-0.3416801 0.134248,-0.1708567 0.201373,-0.3905391 0.201373,-0.6590139 0,-0.2278126 -0.05697,-0.4332394 -0.170868,-0.6162914 C 29.718824,4.8920728 29.554071,4.7476449 29.334399,4.6418633 29.118793,4.5360928 28.85846,4.4832131 28.553355,4.4832131 Z m -5.390432,0.042734 v 4.51549 h 1.04345 V 8.5654969 c 0.101705,0.1586503 0.242046,0.2867955 0.421033,0.3844026 0.178998,0.093564 0.388512,0.140363 0.62852,0.140363 0.280692,0 0.534956,-0.071212 0.762757,-0.2135904 0.227813,-0.1464439 0.406778,-0.3518817 0.536961,-0.6162914 0.134249,-0.2684749 0.201373,-0.5776341 0.201373,-0.9274666 0,-0.3498657 -0.06712,-0.6569979 -0.201373,-0.9214187 C 26.425472,6.1470636 26.246507,5.943686 26.018683,5.8013073 25.790871,5.6589285 25.536607,5.5877059 25.255926,5.5877059 c -0.235943,0 -0.445446,0.048837 -0.62852,0.1464771 -0.183063,0.097629 -0.323393,0.2257634 -0.421033,0.3844137 V 4.526002 h -1.04345 z m 18.921062,0 v 4.51549 h 0.427136 v -4.51549 z M 13.1685,4.75778 14.254683,9.0414366 h 1.263066 l 0.707828,-2.8192182 0.683405,2.8192182 h 1.263176 L 19.288791,4.75778 H 18.166066 L 17.543649,7.8760667 16.811386,4.75778 H 15.664292 L 14.901535,7.8760667 14.285244,4.75778 Z m 17.186465,0.018332 1.617074,4.2651587 h 0.488157 L 34.07727,4.7761118 H 33.625688 L 32.216079,8.5776036 30.818765,4.7761118 h -0.463767 z m 13.042706,0.097629 v 0.8359627 h -0.463767 v 0.3600119 h 0.463767 v 2.0685565 c 0,0.3213657 0.07322,0.5532766 0.21966,0.6956443 C 43.763786,8.97223 43.9875,9.041348 44.288529,9.041348 h 0.457663 V 8.6752772 h -0.390539 c -0.195258,0 -0.331523,-0.038679 -0.408793,-0.115961 C 43.86957,8.4820232 43.830899,8.341683 43.830899,8.1382832 V 6.0697267 h 0.915315 V 5.7097148 H 43.830899 V 4.8737521 H 43.397682 Z M 21.121504,5.5876727 c -0.337648,0 -0.636683,0.071212 -0.897028,0.2136013 -0.260344,0.1423787 -0.463733,0.3457563 -0.610188,0.6101882 -0.142378,0.2644319 -0.213546,0.5735578 -0.213546,0.9274665 0,0.3539087 0.07321,0.6630901 0.219661,0.927522 0.146454,0.2644318 0.349832,0.4678094 0.610188,0.6101881 0.260344,0.1423787 0.55733,0.2136017 0.890902,0.2136017 0.276605,0 0.526804,-0.050831 0.750551,-0.1525363 0.223737,-0.1017054 0.408827,-0.2420904 0.555271,-0.4210884 0.15052,-0.1789979 0.25423,-0.3803264 0.311186,-0.6040849 H 21.62796 c -0.101705,0.2196713 -0.282719,0.329518 -0.543064,0.329518 -0.174921,0 -0.323392,-0.054918 -0.445423,-0.1647535 C 20.521507,7.9633947 20.454371,7.8006904 20.4381,7.5891382 h 2.361533 c 0.01222,-0.1057705 0.01829,-0.207487 0.01829,-0.3051051 0,-0.3417023 -0.07321,-0.6406821 -0.21966,-0.8969837 C 22.455881,6.1307588 22.256524,5.9334623 22.000256,5.7951487 21.743966,5.6568351 21.451089,5.5876616 21.121571,5.5876616 Z m 14.78838,0.073239 c -0.305105,0 -0.579695,0.071167 -0.823779,0.213546 -0.240008,0.1383136 -0.429141,0.3376482 -0.567454,0.5980039 -0.134249,0.2562905 -0.201373,0.5552482 -0.201373,0.8969837 0,0.3417023 0.06712,0.6427866 0.201373,0.9031312 0.138313,0.2603446 0.327446,0.4616841 0.567454,0.604085 0.244084,0.1423787 0.516647,0.213602 0.817676,0.213602 0.317311,0 0.589873,-0.073206 0.817675,-0.2196609 0.231877,-0.15052 0.400718,-0.3397085 0.506489,-0.56751 v 0.7383223 h 0.427136 V 5.7097923 H 37.227945 V 6.4420558 C 37.12625,6.2142432 36.959437,6.0271039 36.727559,5.880649 36.499746,5.7342052 36.227195,5.6609888 35.909884,5.6609888 Z m 2.485812,0.048792 v 1.9466031 c 0,0.4678094 0.126085,0.8258054 0.378299,1.0739436 0.252215,0.2440841 0.577668,0.3661151 0.976304,0.3661151 0.252214,0 0.480027,-0.054918 0.683404,-0.1647535 0.2034,-0.1098356 0.353909,-0.268508 0.451549,-0.475995 v 0.5857974 h 0.427136 V 5.7097923 h -0.427136 v 1.8123546 c 0,0.3945931 -0.09559,0.6935618 -0.286795,0.8969726 -0.191205,0.2033998 -0.447451,0.3051052 -0.768839,0.3051052 -0.313235,0 -0.561429,-0.095591 -0.744481,-0.2867955 C 38.906139,8.2462358 38.816685,7.9695865 38.816685,7.6075476 V 5.7097923 h -0.421033 z m -2.406393,0.323448 c 0.227813,0 0.435244,0.054874 0.622372,0.1647092 0.191194,0.1098356 0.341758,0.266481 0.451583,0.4698697 0.109835,0.2033998 0.164753,0.4393204 0.164753,0.7078285 0,0.2684748 -0.05492,0.5044619 -0.164753,0.7078728 -0.109836,0.2033997 -0.2604,0.3599897 -0.451583,0.4698143 -0.187128,0.1098356 -0.394537,0.1647535 -0.622372,0.1647535 -0.235943,0 -0.447495,-0.05288 -0.634623,-0.1586392 C 35.167552,8.4495248 35.019081,8.2929348 34.909256,8.0895461 34.803486,7.8820813 34.750562,7.6420733 34.750562,7.3695112 c 0,-0.2766382 0.05293,-0.5146413 0.158694,-0.7139759 0.109836,-0.2033998 0.258296,-0.3579406 0.445424,-0.4637112 0.187128,-0.1057705 0.398691,-0.1586502 0.634623,-0.1586502 z M 21.110096,6.4236354 c 0.183063,0 0.335599,0.052924 0.457663,0.1586946 0.122042,0.1057705 0.183096,0.2481492 0.183096,0.4271361 h -1.305821 c 0.02848,-0.1871282 0.101683,-0.331545 0.21966,-0.4332726 0.122042,-0.1017054 0.270502,-0.1525803 0.445424,-0.1525803 z m 3.834278,0.073239 c 0.211541,0 0.388457,0.075254 0.530836,0.2257634 0.146443,0.146455 0.219704,0.3498879 0.219704,0.6102325 0,0.2603446 -0.07326,0.4678095 -0.219704,0.6224168 -0.146444,0.15052 -0.323371,0.2257634 -0.530836,0.2257634 -0.207465,0 -0.384436,-0.075254 -0.530879,-0.2257634 -0.142379,-0.15052 -0.213546,-0.3559911 -0.213546,-0.6163468 0,-0.2603557 0.07117,-0.4657824 0.213546,-0.6162914 0.146443,-0.15052 0.323414,-0.2257634 0.530879,-0.2257634 z"
     fill="#ffffff"
     stroke-width="3.7997"
     style="white-space:pre;paint-order:stroke markers fill"
     id="path10" />
</svg>
